<svg width="64" height="64" viewBox="0 0 64 64" fill="none" xmlns="http://www.w3.org/2000/svg">
<path d="M26 35L36 40L26 45L20 60L14 45L4 40L14 35L20 20L26 35ZM40 48C41.0609 48 42.0783 48.4214 42.8284 49.1716C43.5786 49.9217 44 50.9391 44 52C44 53.0609 43.5786 54.0783 42.8284 54.8284C42.0783 55.5786 41.0609 56 40 56C38.9391 56 37.9217 55.5786 37.1716 54.8284C36.4214 54.0783 36 53.0609 36 52C36 50.9391 36.4214 49.9217 37.1716 49.1716C37.9217 48.4214 38.9391 48 40 48ZM52 36C53.0609 36 54.0783 36.4214 54.8284 37.1716C55.5786 37.9217 56 38.9391 56 40C56 41.0609 55.5786 42.0783 54.8284 42.8284C54.0783 43.5786 53.0609 44 52 44C50.9391 44 49.9217 43.5786 49.1716 42.8284C48.4214 42.0783 48 41.0609 48 40C48 38.9391 48.4214 37.9217 49.1716 37.1716C49.9217 36.4214 50.9391 36 52 36ZM53.076 13.232L60 16L53.076 18.764L50 28L46.92 18.764L40 16L46.92 13.232L50 4L53.076 13.232ZM12 8C13.0609 8 14.0783 8.42143 14.8284 9.17157C15.5786 9.92172 16 10.9391 16 12C16 13.0609 15.5786 14.0783 14.8284 14.8284C14.0783 15.5786 13.0609 16 12 16C10.9391 16 9.92172 15.5786 9.17157 14.8284C8.42143 14.0783 8 13.0609 8 12C8 10.9391 8.42143 9.92172 9.17157 9.17157C9.92172 8.42143 10.9391 8 12 8Z" fill="#F31B1B"/>
</svg>
